<svg xmlns="http://www.w3.org/2000/svg" version="1.1" xmlns:xlink="http://www.w3.org/1999/xlink" xmlns:svgjs="http://svgjs.dev/svgjs" viewBox="0 0 8.085826550602073 1.984334736523428"><g transform="matrix(1,0,0,1,1.7641694362466098,0.317167368261714)"><g><path d=" M 0.8220000000000001 0 Q 0.855 0 0.88725 0.02400000000000002 Q 0.9195 0.04800000000000004 0.9195 0.08850000000000002 Q 0.9195 0.11699999999999999 0.8985 0.14550000000000007 L 0.324 0.8835000000000001 L 0.306 0.8775000000000001 L 0.807 0.8775000000000001 Q 0.846 0.8775000000000001 0.87225 0.90075 Q 0.8985 0.924 0.8985 0.9630000000000001 Q 0.8985 1.0005 0.87225 1.02525 Q 0.846 1.05 0.807 1.05 L 0.1485 1.05 Q 0.1095 1.05 0.081 1.02225 Q 0.0525 0.9945 0.0525 0.9615 Q 0.0525 0.933 0.0735 0.9045000000000001 L 0.6495 0.16349999999999998 L 0.663 0.1725 L 0.2085 0.1725 Q 0.1695 0.1725 0.14325000000000002 0.14850000000000008 Q 0.117 0.12450000000000006 0.117 0.08550000000000002 Q 0.117 0.046499999999999986 0.14325000000000002 0.023249999999999993 Q 0.1695 0 0.2085 0 L 0.8220000000000001 0 M 1.447508056640625 1.065 Q 1.3200080566406251 1.065 1.226258056640625 1.0117500000000001 Q 1.132508056640625 0.9585 1.082258056640625 0.867 Q 1.0320080566406251 0.7755000000000001 1.0320080566406251 0.66 Q 1.0320080566406251 0.525 1.086758056640625 0.4297500000000001 Q 1.141508056640625 0.3345 1.230008056640625 0.2835 Q 1.318508056640625 0.23250000000000004 1.417508056640625 0.23250000000000004 Q 1.494008056640625 0.23250000000000004 1.562258056640625 0.264 Q 1.630508056640625 0.2955 1.6830080566406251 0.35025000000000006 Q 1.735508056640625 0.405 1.7662580566406252 0.477 Q 1.797008056640625 0.549 1.797008056640625 0.6300000000000001 Q 1.795508056640625 0.666 1.768508056640625 0.6885000000000001 Q 1.7415080566406251 0.7110000000000001 1.705508056640625 0.7110000000000001 L 1.132508056640625 0.7110000000000001 L 1.087508056640625 0.561 L 1.638008056640625 0.561 L 1.605008056640625 0.591 L 1.605008056640625 0.5505 Q 1.6020080566406252 0.507 1.574258056640625 0.47250000000000003 Q 1.546508056640625 0.43800000000000006 1.505258056640625 0.41775000000000007 Q 1.464008056640625 0.3975000000000001 1.417508056640625 0.3975000000000001 Q 1.372508056640625 0.3975000000000001 1.333508056640625 0.4095000000000001 Q 1.294508056640625 0.4215 1.266008056640625 0.45000000000000007 Q 1.2375080566406251 0.47850000000000004 1.221008056640625 0.5265000000000001 Q 1.204508056640625 0.5745 1.204508056640625 0.648 Q 1.204508056640625 0.7290000000000001 1.238258056640625 0.78525 Q 1.272008056640625 0.8415 1.325258056640625 0.87075 Q 1.3785080566406251 0.9 1.438508056640625 0.9 Q 1.494008056640625 0.9 1.527008056640625 0.891 Q 1.560008056640625 0.882 1.580258056640625 0.8692500000000001 Q 1.6005080566406251 0.8565 1.617008056640625 0.8475 Q 1.644008056640625 0.8340000000000001 1.668008056640625 0.8340000000000001 Q 1.701008056640625 0.8340000000000001 1.7227580566406249 0.8565 Q 1.744508056640625 0.879 1.744508056640625 0.909 Q 1.744508056640625 0.9495 1.702508056640625 0.9825 Q 1.663508056640625 1.0155 1.593008056640625 1.0402500000000001 Q 1.522508056640625 1.065 1.447508056640625 1.065 M 1.91553369140625 0.9255 Q 1.90053369140625 0.9045000000000001 1.9020336914062501 0.8715 Q 1.90353369140625 0.8385 1.94103369140625 0.8145 Q 1.96503369140625 0.7995000000000001 1.99203369140625 0.8017500000000001 Q 2.01903369140625 0.804 2.04453369140625 0.8295 Q 2.08803369140625 0.873 2.13603369140625 0.897 Q 2.18403369140625 0.921 2.25603369140625 0.921 Q 2.27853369140625 0.9195 2.30553369140625 0.91425 Q 2.33253369140625 0.909 2.35278369140625 0.89025 Q 2.37303369140625 0.8715 2.37303369140625 0.8325 Q 2.37303369140625 0.7995000000000001 2.35053369140625 0.78 Q 2.32803369140625 0.7605000000000001 2.29128369140625 0.7470000000000001 Q 2.25453369140625 0.7335 2.20953369140625 0.7215 Q 2.16303369140625 0.708 2.11428369140625 0.6915 Q 2.06553369140625 0.675 2.02503369140625 0.64875 Q 1.98453369140625 0.6225 1.95903369140625 0.579 Q 1.93353369140625 0.5355000000000001 1.93353369140625 0.46950000000000003 Q 1.93353369140625 0.3945000000000001 1.97553369140625 0.3420000000000001 Q 2.01753369140625 0.2895 2.08428369140625 0.261 Q 2.15103369140625 0.23250000000000004 2.22453369140625 0.23250000000000004 Q 2.27103369140625 0.23250000000000004 2.32203369140625 0.24375000000000002 Q 2.37303369140625 0.255 2.41953369140625 0.27975000000000005 Q 2.46603369140625 0.3045 2.4975336914062503 0.3450000000000001 Q 2.51403369140625 0.36750000000000005 2.51703369140625 0.399 Q 2.52003369140625 0.4305 2.48853369140625 0.45600000000000007 Q 2.46603369140625 0.474 2.43603369140625 0.47175 Q 2.40603369140625 0.46950000000000003 2.38653369140625 0.4515 Q 2.36103369140625 0.4185 2.31828369140625 0.399 Q 2.27553369140625 0.37950000000000006 2.22003369140625 0.37950000000000006 Q 2.19753369140625 0.37950000000000006 2.17128369140625 0.38475000000000004 Q 2.14503369140625 0.39 2.12553369140625 0.40725 Q 2.10603369140625 0.4245 2.10603369140625 0.4620000000000001 Q 2.10603369140625 0.49650000000000005 2.12853369140625 0.51675 Q 2.15103369140625 0.537 2.18928369140625 0.5497500000000001 Q 2.22753369140625 0.5625 2.27103369140625 0.5745 Q 2.31603369140625 0.5865 2.36253369140625 0.603 Q 2.40903369140625 0.6195 2.44803369140625 0.6465000000000001 Q 2.48703369140625 0.6735 2.51103369140625 0.71625 Q 2.53503369140625 0.7590000000000001 2.53503369140625 0.8250000000000001 Q 2.53503369140625 0.9015000000000001 2.49003369140625 0.9555 Q 2.44503369140625 1.0095 2.37753369140625 1.03725 Q 2.3100336914062503 1.065 2.2395336914062502 1.065 Q 2.15103369140625 1.065 2.06253369140625 1.0342500000000001 Q 1.97403369140625 1.0035 1.91553369140625 0.9255 M 2.709025634765625 0.26250000000000007 L 3.064525634765625 0.26250000000000007 Q 3.100525634765625 0.26250000000000007 3.124525634765625 0.2865 Q 3.148525634765625 0.3105 3.148525634765625 0.34650000000000003 Q 3.148525634765625 0.381 3.124525634765625 0.40425 Q 3.100525634765625 0.4275 3.064525634765625 0.4275 L 2.709025634765625 0.4275 Q 2.673025634765625 0.4275 2.649025634765625 0.4035000000000001 Q 2.625025634765625 0.37950000000000006 2.625025634765625 0.3435 Q 2.625025634765625 0.30900000000000005 2.649025634765625 0.28575000000000006 Q 2.673025634765625 0.26250000000000007 2.709025634765625 0.26250000000000007 M 2.869525634765625 0.07500000000000007 Q 2.908525634765625 0.07500000000000007 2.933275634765625 0.10125000000000006 Q 2.958025634765625 0.12750000000000006 2.958025634765625 0.16649999999999998 L 2.958025634765625 0.8340000000000001 Q 2.958025634765625 0.855 2.966275634765625 0.8685 Q 2.974525634765625 0.882 2.988775634765625 0.888 Q 3.003025634765625 0.894 3.0195256347656247 0.894 Q 3.037525634765625 0.894 3.052525634765625 0.8872500000000001 Q 3.067525634765625 0.8805000000000001 3.087025634765625 0.8805000000000001 Q 3.108025634765625 0.8805000000000001 3.125275634765625 0.9 Q 3.142525634765625 0.9195 3.142525634765625 0.9540000000000001 Q 3.142525634765625 0.996 3.096775634765625 1.0230000000000001 Q 3.051025634765625 1.05 2.998525634765625 1.05 Q 2.967025634765625 1.05 2.928775634765625 1.04475 Q 2.890525634765625 1.0395 2.856775634765625 1.01925 Q 2.823025634765625 0.999 2.800525634765625 0.9570000000000001 Q 2.778025634765625 0.915 2.778025634765625 0.8415 L 2.778025634765625 0.16649999999999998 Q 2.778025634765625 0.12750000000000006 2.804275634765625 0.10125000000000006 Q 2.830525634765625 0.07500000000000007 2.869525634765625 0.07500000000000007 M 3.8130205078125 0 Q 3.9570205078125 0 4.0275205078125005 0.0675 Q 4.0980205078125 0.135 4.0980205078125 0.267 Q 4.0980205078125 0.3375 4.0635205078125 0.39075000000000004 Q 4.0290205078125005 0.44400000000000006 3.9615205078125 0.47325000000000006 Q 3.8940205078125 0.5025000000000001 3.7950205078125 0.5025000000000001 L 3.8010205078125 0.43500000000000005 Q 3.8475205078125 0.43500000000000005 3.9075205078125 0.44775 Q 3.9675205078125 0.4605 4.0237705078125 0.49275 Q 4.0800205078125 0.525 4.1167705078125 0.5827500000000001 Q 4.1535205078125 0.6405000000000001 4.1535205078125 0.7305 Q 4.1535205078125 0.8295 4.1212705078125005 0.8925000000000001 Q 4.0890205078125 0.9555 4.0365205078125 0.99 Q 3.9840205078125 1.0245 3.9240205078125 1.03725 Q 3.8640205078125 1.05 3.8085205078125 1.05 L 3.4350205078125002 1.05 Q 3.3960205078125 1.05 3.3697705078125 1.02375 Q 3.3435205078125 0.9975 3.3435205078125 0.9585 L 3.3435205078125 0.09150000000000003 Q 3.3435205078125 0.05249999999999999 3.3697705078125 0.026250000000000107 Q 3.3960205078125 0 3.4350205078125002 0 L 3.8130205078125 0 M 3.7860205078125 0.17700000000000005 L 3.5190205078125 0.17700000000000005 L 3.5385205078125 0.15300000000000002 L 3.5385205078125 0.4245 L 3.5205205078125 0.41100000000000003 L 3.7905205078125 0.41100000000000003 Q 3.8340205078125003 0.41100000000000003 3.8685205078125002 0.38250000000000006 Q 3.9030205078125 0.354 3.9030205078125 0.30000000000000004 Q 3.9030205078125 0.23550000000000004 3.8707705078125 0.20625000000000004 Q 3.8385205078125 0.17700000000000005 3.7860205078125 0.17700000000000005 M 3.7980205078125002 0.5880000000000001 L 3.5250205078125 0.5880000000000001 L 3.5385205078125 0.5760000000000001 L 3.5385205078125 0.8925000000000001 L 3.5235205078125 0.8775000000000001 L 3.8085205078125 0.8775000000000001 Q 3.8775205078125 0.8775000000000001 3.9180205078125 0.8407500000000001 Q 3.9585205078125 0.804 3.9585205078125 0.7305 Q 3.9585205078125 0.663 3.9315205078125 0.633 Q 3.9045205078125003 0.603 3.8670205078125 0.5955 Q 3.8295205078125 0.5880000000000001 3.7980205078125002 0.5880000000000001 M 4.921564453125001 0.24750000000000005 Q 4.960564453125 0.24750000000000005 4.9860644531250005 0.27375000000000005 Q 5.0115644531250005 0.30000000000000004 5.0115644531250005 0.3390000000000001 L 5.0115644531250005 0.72 Q 5.0115644531250005 0.879 4.923064453125 0.9720000000000001 Q 4.834564453125 1.065 4.668064453125 1.065 Q 4.501564453125 1.065 4.413814453125 0.9720000000000001 Q 4.326064453125 0.879 4.326064453125 0.72 L 4.326064453125 0.3390000000000001 Q 4.326064453125 0.30000000000000004 4.351564453125 0.27375000000000005 Q 4.3770644531250005 0.24750000000000005 4.416064453125 0.24750000000000005 Q 4.455064453125 0.24750000000000005 4.480564453125 0.27375000000000005 Q 4.506064453125 0.30000000000000004 4.506064453125 0.3390000000000001 L 4.506064453125 0.72 Q 4.506064453125 0.8115 4.546564453125 0.85575 Q 4.587064453125 0.9 4.668064453125 0.9 Q 4.750564453125 0.9 4.791064453125 0.85575 Q 4.831564453125 0.8115 4.831564453125 0.72 L 4.831564453125 0.3390000000000001 Q 4.831564453125 0.30000000000000004 4.857064453125 0.27375000000000005 Q 4.882564453125 0.24750000000000005 4.921564453125001 0.24750000000000005 M 5.8170270996093745 0.24750000000000005 Q 5.856027099609375 0.24750000000000005 5.881527099609375 0.27375000000000005 Q 5.907027099609375 0.30000000000000004 5.907027099609375 0.3390000000000001 L 5.907027099609375 0.9765 Q 5.907027099609375 1.1145 5.855277099609375 1.19625 Q 5.803527099609375 1.278 5.716527099609375 1.314 Q 5.6295270996093745 1.35 5.521527099609375 1.35 Q 5.473527099609375 1.35 5.4195270996093745 1.3425 Q 5.365527099609375 1.335 5.331027099609375 1.32 Q 5.286027099609375 1.3005 5.268777099609375 1.27125 Q 5.251527099609375 1.242 5.262027099609375 1.209 Q 5.275527099609375 1.1655 5.305527099609375 1.14975 Q 5.335527099609375 1.1340000000000001 5.368527099609375 1.1460000000000001 Q 5.392527099609375 1.1535 5.431527099609375 1.1692500000000001 Q 5.470527099609375 1.185 5.521527099609375 1.185 Q 5.590527099609375 1.185 5.636277099609375 1.16625 Q 5.682027099609375 1.1475 5.705277099609375 1.10325 Q 5.728527099609375 1.059 5.728527099609375 0.9825 L 5.728527099609375 0.882 L 5.760027099609375 0.918 Q 5.734527099609375 0.9675 5.696277099609375 0.99975 Q 5.658027099609375 1.032 5.6055270996093745 1.0485 Q 5.553027099609375 1.065 5.485527099609375 1.065 Q 5.406027099609375 1.065 5.346777099609374 1.02825 Q 5.287527099609375 0.9915 5.2545270996093745 0.92625 Q 5.221527099609375 0.861 5.221527099609375 0.777 L 5.221527099609375 0.3390000000000001 Q 5.221527099609375 0.30000000000000004 5.247027099609375 0.27375000000000005 Q 5.272527099609375 0.24750000000000005 5.311527099609375 0.24750000000000005 Q 5.350527099609375 0.24750000000000005 5.376027099609375 0.27375000000000005 Q 5.401527099609375 0.30000000000000004 5.401527099609375 0.3390000000000001 L 5.401527099609375 0.7230000000000001 Q 5.401527099609375 0.8205 5.444277099609375 0.8602500000000001 Q 5.487027099609374 0.9 5.563527099609375 0.9 Q 5.616027099609375 0.9 5.652027099609375 0.87975 Q 5.688027099609375 0.8595 5.707527099609375 0.81975 Q 5.727027099609375 0.78 5.727027099609375 0.7230000000000001 L 5.727027099609375 0.3390000000000001 Q 5.727027099609375 0.30000000000000004 5.752527099609375 0.27375000000000005 Q 5.778027099609375 0.24750000000000005 5.8170270996093745 0.24750000000000005" fill="#202020" fill-rule="nonzero"></path></g><g></g><g clip-path="url(#SvgjsClipPath1001)"><g clip-path="url(#SvgjsClipPath1000b852bd0b-793f-43db-9e77-cf0b66e7c806)"><path d=" M -0.8985692972485575 0.0014989660075520606 L -0.8985692972485575 0.3135336269653007 C -0.8983321901849447 0.4166233821057422 -0.8146946700648136 0.5000685359295945 -0.711604642251252 0.5000682632561098 L -0.3999999999999999 0.5000682632561098 L -0.3999999999999999 0.5374611942555704 L -0.7116046422512546 0.5374611942555704 C -0.8148149293206596 0.5374611724523948 -0.8985022105619648 0.621094056960893 -0.8985692972485576 0.7243043222271249 L -0.8985692972485576 1.0485010339924479 L -0.935962228248018 1.0485010339924479 L -0.935962228248018 0.7243043222271249 C -0.9360290964197311 0.6212143943705766 -1.0195285823169455 0.5376312709856403 -1.122618391564609 0.5374611942555704 L -1.4470020679848958 0.5374611942555704 L -1.4470020679848958 0.5000682632561098 L -1.1226183915645753 0.5000682632561098 C -1.0196378814311577 0.4998985828975819 -0.9361834968548034 0.4164859944771731 -0.935962228248018 0.31350558226705105 L -0.935962228248018 0.0014989660075520606 Z M -0.9172657627482879 0.6346267254576686 C -0.8945698784646681 0.5828266884324093 -0.85321131986266 0.5414647925788396 -0.801413114279209 0.51876472875584 C -0.8532106871418802 0.49606846305633134 -0.8945694970487792 0.4547096531494324 -0.9172657627482879 0.4029120802867612 C -0.9399651112618426 0.45470754768956617 -0.9813229438145614 0.4960653802422851 -1.0331184112173664 0.5187647287558399 C -0.9813223110404499 0.5414678749925914 -0.9399647296155291 0.5828287935902245 -0.9172657627482879 0.6346267254576686 Z" fill="#202020" transform="matrix(1,0,0,1,0,0)" fill-rule="evenodd"></path></g><g clip-path="url(#SvgjsClipPath1000b852bd0b-793f-43db-9e77-cf0b66e7c806)"><path d=" M -1.1852515509886719 0.786750516996224 C -1.3298123697860122 0.786750516996224 -1.4470020679848958 0.6695608187973406 -1.4470020679848958 0.525 C -1.4470020679848958 0.3804391812026597 -1.3298123697860122 0.2632494830037761 -1.1852515509886719 0.26324948300377604 C -1.1852515509886719 0.1186886642064357 -1.0680618527897883 0.0014989660075520937 -0.923501033992448 0.0014989660075520606 C -0.7789402151951075 0.0014989660075520606 -0.6617505169962239 0.11868866420643563 -0.6617505169962239 0.263249483003776 C -0.5171896981988833 0.26324948300377604 -0.3999999999999999 0.3804391812026597 -0.3999999999999999 0.525 C -0.3999999999999999 0.6695608187973404 -0.5171896981988833 0.786750516996224 -0.6617505169962239 0.786750516996224 C -0.6617505169962239 0.9313113357935644 -0.7789402151951073 1.0485010339924479 -0.9235010339924479 1.0485010339924479 C -1.0680618527897883 1.0485010339924479 -1.1852515509886719 0.9313113357935646 -1.1852515509886719 0.786750516996224 Z M -0.6991434479956844 0.786750516996224 L -1.1478586199892113 0.786750516996224 C -1.1478586199892113 0.9106597902510873 -1.047410307247311 1.0111081029929876 -0.9235010339924479 1.0111081029929876 C -0.7995917607375846 1.0111081029929876 -0.6991434479956844 0.9106597902510873 -0.6991434479956844 0.786750516996224 Z M -0.6617505169962239 0.7493575859967635 C -0.5378412437413606 0.7493575859967635 -0.4373929309994604 0.6489092732548633 -0.4373929309994604 0.525 C -0.4373929309994604 0.40109072674513685 -0.5378412437413606 0.30064241400323666 -0.6617505169962239 0.30064241400323666 Z M -0.6991434479956844 0.26324948300377604 C -0.6991434479956844 0.13934020974891284 -0.7995917607375846 0.038891897007012635 -0.9235010339924479 0.038891897007012635 C -1.047410307247311 0.038891897007012635 -1.1478586199892113 0.13934020974891284 -1.1478586199892113 0.263249483003776 Z M -1.1478586199892113 0.30064241400323666 L -0.6991434479956844 0.30064241400323666 L -0.6991434479956844 0.7493575859967635 L -1.1478586199892113 0.7493575859967635 Z M -1.1852515509886719 0.30064241400323666 C -1.309160824243535 0.30064241400323666 -1.4096091369854353 0.40109072674513685 -1.4096091369854353 0.525 C -1.4096091369854353 0.6489092732548633 -1.309160824243535 0.7493575859967635 -1.1852515509886719 0.7493575859967635 Z" fill="#202020" transform="matrix(1,0,0,1,0,0)" fill-rule="evenodd"></path></g></g></g><defs><clipPath id="SvgjsClipPath1001"><path d=" M -1.4470020679848958 0.0014989660075520606 h 1.047002067984896 v 1.047002067984896 h -1.047002067984896 Z"></path></clipPath><clipPath id="SvgjsClipPath1000b852bd0b-793f-43db-9e77-cf0b66e7c806"><path d=" M -1.4470020679848958 0.0014989660075520606 L -0.3999999999999999 0.0014989660075520606 L -0.3999999999999999 1.0485010339924479 L -1.4470020679848958 1.0485010339924479 Z"></path></clipPath></defs></svg>